<svg xmlns="http://www.w3.org/2000/svg" viewBox="0 0 512 512" role="img" aria-label="ExpenseKit">
  <rect width="512" height="512" fill="#FF6C37"/>
  <g fill="none" stroke="#FFFFFF" stroke-width="22" stroke-linecap="round" stroke-linejoin="round">
    <rect x="148" y="178" width="216" height="156" rx="28"/>
    <path d="M148 210h216"/>
    <circle cx="310" cy="256" r="28" fill="#FFFFFF" stroke="none"/>
  </g>
  <path fill="#FF6C37" d="M298 240h24v6h-18v10h16v6h-16v12h-6v-34zm-18 0h6v34h-6v-34zm-24 0c10 0 18 6 18 17s-8 17-18 17h-10v-34h10zm-4 28h6c5 0 8-3 8-11s-3-11-8-11h-6v22z"/>
</svg>
