<svg xmlns="http://www.w3.org/2000/svg" viewBox="0 0 480 120" role="img" aria-label="ExpenseKit">
  <rect x="8" y="8" width="104" height="104" rx="22" fill="#FF6C37"/>
  <g fill="none" stroke="#FFFFFF" stroke-width="8" stroke-linecap="round" stroke-linejoin="round">
    <rect x="26" y="34" width="68" height="52" rx="10"/>
    <path d="M26 48h68"/>
    <circle cx="76" cy="60" r="10" fill="#FFFFFF" stroke="none"/>
  </g>
  <path fill="#FF6C37" d="M72 52h8v4h-6v5h5v4h-5v7h-3v-20zm-8 0h3v20h-3v-20zm-12 0c6 0 10 4 10 10s-4 10-10 10h-6v-20h6zm-2 16h3c3 0 5-2 5-6s-2-6-5-6h-3v12z"/>
  <text x="132" y="78" font-size="52" font-weight="700" fill="#1A1A1A" font-family="Arial,Helvetica,sans-serif">ExpenseKit</text>
</svg>
